<svg width="134" height="33" viewBox="0 0 134 33" fill="none" xmlns="http://www.w3.org/2000/svg">
<path d="M9.644 28.396L1.112 12.916H5.504L11.048 24.58L8.78 24.472L13.82 12.916H17.96L9.788 28.396H9.644ZM19.7316 20.296C19.7316 18.784 20.0916 17.428 20.8116 16.228C21.5316 15.004 22.5276 14.044 23.7996 13.348C25.0716 12.652 26.5236 12.304 28.1556 12.304C29.8116 12.304 31.2636 12.652 32.5116 13.348C33.7596 14.044 34.7196 15.004 35.3916 16.228C36.0876 17.428 36.4356 18.784 36.4356 20.296C36.4356 21.808 36.0876 23.176 35.3916 24.4C34.7196 25.624 33.7596 26.596 32.5116 27.316C31.2636 28.012 29.7996 28.36 28.1196 28.36C26.5116 28.36 25.0716 28.036 23.7996 27.388C22.5516 26.74 21.5556 25.816 20.8116 24.616C20.0916 23.392 19.7316 21.952 19.7316 20.296ZM23.4756 20.332C23.4756 21.268 23.6796 22.12 24.0876 22.888C24.4956 23.632 25.0476 24.232 25.7436 24.688C26.4396 25.12 27.2196 25.336 28.0836 25.336C28.9716 25.336 29.7636 25.12 30.4596 24.688C31.1556 24.232 31.6956 23.632 32.0796 22.888C32.4876 22.12 32.6916 21.268 32.6916 20.332C32.6916 19.396 32.4876 18.556 32.0796 17.812C31.6956 17.068 31.1556 16.468 30.4596 16.012C29.7636 15.556 28.9716 15.328 28.0836 15.328C27.1956 15.328 26.4036 15.556 25.7076 16.012C25.0116 16.468 24.4596 17.08 24.0516 17.848C23.6676 18.592 23.4756 19.42 23.4756 20.332ZM53.1686 26.596C52.4966 27.148 51.6806 27.58 50.7206 27.892C49.7846 28.204 48.8366 28.36 47.8766 28.36C46.2206 28.36 44.7566 28.036 43.4846 27.388C42.2366 26.74 41.2646 25.828 40.5686 24.652C39.8726 23.476 39.5246 22.072 39.5246 20.44C39.5246 18.832 39.8966 17.44 40.6406 16.264C41.3846 15.064 42.3686 14.152 43.5926 13.528C44.8166 12.88 46.1126 12.556 47.4806 12.556C48.7286 12.556 49.8326 12.724 50.7926 13.06C51.7526 13.396 52.5806 13.864 53.2766 14.464L51.4406 16.876C51.0326 16.54 50.5166 16.24 49.8926 15.976C49.2926 15.712 48.5966 15.58 47.8046 15.58C46.9646 15.58 46.1966 15.796 45.5006 16.228C44.8046 16.636 44.2526 17.212 43.8446 17.956C43.4366 18.676 43.2326 19.504 43.2326 20.44C43.2326 21.328 43.4366 22.156 43.8446 22.924C44.2766 23.668 44.8646 24.256 45.6086 24.688C46.3526 25.12 47.2046 25.336 48.1646 25.336C48.7886 25.336 49.3646 25.252 49.8926 25.084C50.4206 24.892 50.8886 24.628 51.2966 24.292L53.1686 26.596ZM63.7143 28.36C62.2983 28.36 61.0143 28.072 59.8623 27.496C58.7103 26.896 57.7983 26.008 57.1263 24.832C56.4543 23.656 56.1183 22.204 56.1183 20.476C56.1183 18.772 56.4663 17.308 57.1623 16.084C57.8823 14.86 58.8183 13.924 59.9703 13.276C61.1463 12.604 62.4183 12.268 63.7863 12.268C65.2263 12.268 66.4023 12.58 67.3143 13.204C68.2503 13.804 68.9823 14.512 69.5103 15.328L69.2583 15.904L69.6183 12.916H73.0383V28H69.3303V24.22L69.7263 25.12C69.6303 25.312 69.4263 25.588 69.1143 25.948C68.8023 26.284 68.3823 26.644 67.8543 27.028C67.3503 27.412 66.7503 27.736 66.0543 28C65.3823 28.24 64.6023 28.36 63.7143 28.36ZM64.7223 25.336C65.5143 25.336 66.2223 25.192 66.8463 24.904C67.4703 24.616 67.9983 24.208 68.4303 23.68C68.8623 23.152 69.1623 22.528 69.3303 21.808V18.676C69.1383 18.004 68.8143 17.428 68.3583 16.948C67.9023 16.444 67.3503 16.048 66.7023 15.76C66.0783 15.472 65.3823 15.328 64.6143 15.328C63.7503 15.328 62.9583 15.544 62.2383 15.976C61.5183 16.384 60.9423 16.96 60.5103 17.704C60.0783 18.448 59.8623 19.312 59.8623 20.296C59.8623 21.232 60.0783 22.084 60.5103 22.852C60.9663 23.62 61.5663 24.232 62.3103 24.688C63.0543 25.12 63.8583 25.336 64.7223 25.336ZM78.719 0.0279996H82.427V28H78.719V0.0279996ZM88.0706 12.916H91.7786V28H88.0706V12.916ZM87.8546 7.516C87.8546 6.94 88.0826 6.46 88.5386 6.076C88.9946 5.692 89.4866 5.5 90.0146 5.5C90.5666 5.5 91.0586 5.692 91.4906 6.076C91.9226 6.46 92.1386 6.94 92.1386 7.516C92.1386 8.092 91.9226 8.572 91.4906 8.956C91.0586 9.316 90.5666 9.496 90.0146 9.496C89.4866 9.496 88.9946 9.316 88.5386 8.956C88.0826 8.572 87.8546 8.092 87.8546 7.516ZM99.0421 15.94C98.2741 15.94 97.6141 15.7 97.0621 15.22C96.5101 14.716 96.2341 13.996 96.2341 13.06V11.476H99.0061V11.98C99.0061 12.388 99.1021 12.652 99.2941 12.772C99.4861 12.868 99.7981 12.916 100.23 12.916H109.878L100.986 25.732L100.266 24.976H109.734V28H95.5141L104.622 14.896L105.198 15.94H99.0421ZM120.808 28.36C119.392 28.36 118.108 28.072 116.956 27.496C115.804 26.896 114.892 26.008 114.22 24.832C113.548 23.656 113.212 22.204 113.212 20.476C113.212 18.772 113.56 17.308 114.256 16.084C114.976 14.86 115.912 13.924 117.064 13.276C118.24 12.604 119.512 12.268 120.88 12.268C122.32 12.268 123.496 12.58 124.408 13.204C125.344 13.804 126.076 14.512 126.604 15.328L126.352 15.904L126.712 12.916H130.132V28H126.424V24.22L126.82 25.12C126.724 25.312 126.52 25.588 126.208 25.948C125.896 26.284 125.476 26.644 124.948 27.028C124.444 27.412 123.844 27.736 123.148 28C122.476 28.24 121.696 28.36 120.808 28.36ZM121.816 25.336C122.608 25.336 123.316 25.192 123.94 24.904C124.564 24.616 125.092 24.208 125.524 23.68C125.956 23.152 126.256 22.528 126.424 21.808V18.676C126.232 18.004 125.908 17.428 125.452 16.948C124.996 16.444 124.444 16.048 123.796 15.76C123.172 15.472 122.476 15.328 121.708 15.328C120.844 15.328 120.052 15.544 119.332 15.976C118.612 16.384 118.036 16.96 117.604 17.704C117.172 18.448 116.956 19.312 116.956 20.296C116.956 21.232 117.172 22.084 117.604 22.852C118.06 23.62 118.66 24.232 119.404 24.688C120.148 25.12 120.952 25.336 121.816 25.336Z" fill="#2B7FFF"/>
</svg>
